<mxfile host="app.diagrams.net" agent="Mozilla/5.0 (Macintosh; Intel Mac OS X 10_15_7) AppleWebKit/537.36 (KHTML, like Gecko) Chrome/136.0.0.0 Safari/537.36" version="27.1.4">
  <diagram name="第 1 页" id="WTP4XxhNjIVaC0oIP5qb">
    <mxGraphModel dx="1153" dy="1113" grid="0" gridSize="10" guides="1" tooltips="1" connect="1" arrows="1" fold="1" page="0" pageScale="1" pageWidth="827" pageHeight="1169" math="0" shadow="0">
      <root>
        <mxCell id="0" />
        <mxCell id="1" parent="0" />
        <mxCell id="4yl_uOLzNPHJbYXBtYCq-2" value="&lt;span style=&quot;color: rgb(23, 43, 77); font-family: -apple-system, &amp;quot;system-ui&amp;quot;, &amp;quot;Segoe UI&amp;quot;, Roboto, Oxygen, Ubuntu, &amp;quot;Fira Sans&amp;quot;, &amp;quot;Droid Sans&amp;quot;, &amp;quot;Helvetica Neue&amp;quot;, sans-serif; font-size: 14px; text-align: left; background-color: rgb(255, 255, 255);&quot;&gt;/home/load/2200T/19_V4.3.2_ZY_XTX_Flash/Firmware&lt;/span&gt;" style="text;html=1;align=center;verticalAlign=middle;whiteSpace=wrap;rounded=0;" parent="1" vertex="1">
          <mxGeometry x="210" y="300" width="60" height="30" as="geometry" />
        </mxCell>
        <mxCell id="4yl_uOLzNPHJbYXBtYCq-3" value="&lt;span style=&quot;color: rgb(23, 43, 77); font-family: -apple-system, &amp;quot;system-ui&amp;quot;, &amp;quot;Segoe UI&amp;quot;, Roboto, Oxygen, Ubuntu, &amp;quot;Fira Sans&amp;quot;, &amp;quot;Droid Sans&amp;quot;, &amp;quot;Helvetica Neue&amp;quot;, sans-serif; font-size: 14px; text-align: left; text-wrap-mode: wrap; background-color: rgb(255, 255, 255);&quot;&gt;hados-ysburn-inner-1.0.18.13-el8.x86_64.rpm&lt;/span&gt;" style="text;html=1;align=center;verticalAlign=middle;resizable=0;points=[];autosize=1;strokeColor=none;fillColor=none;" parent="1" vertex="1">
          <mxGeometry x="340" y="260" width="320" height="30" as="geometry" />
        </mxCell>
        <mxCell id="4yl_uOLzNPHJbYXBtYCq-4" value="&lt;span style=&quot;color: rgb(23, 43, 77); font-family: -apple-system, &amp;quot;system-ui&amp;quot;, &amp;quot;Segoe UI&amp;quot;, Roboto, Oxygen, Ubuntu, &amp;quot;Fira Sans&amp;quot;, &amp;quot;Droid Sans&amp;quot;, &amp;quot;Helvetica Neue&amp;quot;, sans-serif; font-size: 14px; text-align: left; text-wrap-mode: wrap; background-color: rgb(255, 255, 255);&quot;&gt;2200T_25G_4.3.2_250519.img&lt;/span&gt;" style="text;html=1;align=center;verticalAlign=middle;resizable=0;points=[];autosize=1;strokeColor=none;fillColor=none;" parent="1" vertex="1">
          <mxGeometry x="440" y="330" width="220" height="30" as="geometry" />
        </mxCell>
        <mxCell id="4yl_uOLzNPHJbYXBtYCq-5" value="&lt;font style=&quot;color: rgb(22, 255, 150);&quot;&gt;ysburn_version&lt;/font&gt;&lt;div&gt;&lt;font style=&quot;color: rgb(22, 255, 150);&quot;&gt;firmware_version&lt;/font&gt;&lt;/div&gt;" style="text;html=1;align=center;verticalAlign=middle;resizable=0;points=[];autosize=1;strokeColor=none;fillColor=none;" parent="1" vertex="1">
          <mxGeometry x="325" y="183" width="110" height="40" as="geometry" />
        </mxCell>
        <mxCell id="4yl_uOLzNPHJbYXBtYCq-6" value="&lt;span style=&quot;color: rgb(23, 43, 77); font-family: -apple-system, &amp;quot;system-ui&amp;quot;, &amp;quot;Segoe UI&amp;quot;, Roboto, Oxygen, Ubuntu, &amp;quot;Fira Sans&amp;quot;, &amp;quot;Droid Sans&amp;quot;, &amp;quot;Helvetica Neue&amp;quot;, sans-serif; font-size: 14px; text-align: left; text-wrap-mode: wrap; background-color: rgb(255, 255, 255);&quot;&gt;yum install ./hados-ysburn-inner-1.0.18.13-el8.x86_64.rpm&amp;nbsp;&lt;/span&gt;" style="text;html=1;align=center;verticalAlign=middle;resizable=0;points=[];autosize=0;strokeColor=none;fillColor=none;" parent="1" vertex="1">
          <mxGeometry x="-85" y="408" width="410" height="30" as="geometry" />
        </mxCell>
        <mxCell id="PMFWBWJMJhMOsHf-A9bf-1" value="" style="shape=crossbar;whiteSpace=wrap;html=1;rounded=1;" parent="1" vertex="1">
          <mxGeometry x="10" y="600" width="90" height="20" as="geometry" />
        </mxCell>
        <mxCell id="PMFWBWJMJhMOsHf-A9bf-3" value="" style="shape=crossbar;whiteSpace=wrap;html=1;rounded=1;" parent="1" vertex="1">
          <mxGeometry x="10" y="660" width="90" height="20" as="geometry" />
        </mxCell>
        <mxCell id="PMFWBWJMJhMOsHf-A9bf-4" value="" style="shape=crossbar;whiteSpace=wrap;html=1;rounded=1;" parent="1" vertex="1">
          <mxGeometry x="190" y="660" width="90" height="20" as="geometry" />
        </mxCell>
        <mxCell id="PMFWBWJMJhMOsHf-A9bf-5" value="" style="shape=crossbar;whiteSpace=wrap;html=1;rounded=1;" parent="1" vertex="1">
          <mxGeometry x="100" y="660" width="90" height="20" as="geometry" />
        </mxCell>
        <mxCell id="PMFWBWJMJhMOsHf-A9bf-6" value="" style="endArrow=none;html=1;rounded=0;exitX=1;exitY=0.5;exitDx=0;exitDy=0;exitPerimeter=0;" parent="1" source="PMFWBWJMJhMOsHf-A9bf-4" edge="1">
          <mxGeometry width="50" height="50" relative="1" as="geometry">
            <mxPoint x="430" y="700" as="sourcePoint" />
            <mxPoint x="310" y="670" as="targetPoint" />
          </mxGeometry>
        </mxCell>
        <mxCell id="PMFWBWJMJhMOsHf-A9bf-7" value="4 X" style="text;html=1;align=center;verticalAlign=middle;resizable=0;points=[];autosize=1;strokeColor=none;fillColor=none;" parent="1" vertex="1">
          <mxGeometry x="-50" y="595" width="40" height="30" as="geometry" />
        </mxCell>
        <mxCell id="PMFWBWJMJhMOsHf-A9bf-8" value="2 X" style="text;html=1;align=center;verticalAlign=middle;resizable=0;points=[];autosize=1;strokeColor=none;fillColor=none;" parent="1" vertex="1">
          <mxGeometry x="-50" y="648" width="40" height="30" as="geometry" />
        </mxCell>
        <mxCell id="PMFWBWJMJhMOsHf-A9bf-9" value="" style="endArrow=classic;html=1;rounded=0;entryX=0.25;entryY=0.5;entryDx=0;entryDy=0;entryPerimeter=0;" parent="1" target="PMFWBWJMJhMOsHf-A9bf-3" edge="1">
          <mxGeometry width="50" height="50" relative="1" as="geometry">
            <mxPoint x="16" y="610" as="sourcePoint" />
            <mxPoint x="66" y="560" as="targetPoint" />
            <Array as="points">
              <mxPoint x="26" y="646" />
            </Array>
          </mxGeometry>
        </mxCell>
        <mxCell id="PMFWBWJMJhMOsHf-A9bf-10" value="" style="endArrow=classic;html=1;rounded=0;exitX=0.089;exitY=0.65;exitDx=0;exitDy=0;exitPerimeter=0;entryX=0.25;entryY=0.5;entryDx=0;entryDy=0;entryPerimeter=0;" parent="1" source="PMFWBWJMJhMOsHf-A9bf-1" target="PMFWBWJMJhMOsHf-A9bf-5" edge="1">
          <mxGeometry width="50" height="50" relative="1" as="geometry">
            <mxPoint x="111" y="535" as="sourcePoint" />
            <mxPoint x="161" y="485" as="targetPoint" />
          </mxGeometry>
        </mxCell>
        <mxCell id="PMFWBWJMJhMOsHf-A9bf-11" value="" style="endArrow=classic;html=1;rounded=0;entryX=0.25;entryY=0.5;entryDx=0;entryDy=0;entryPerimeter=0;" parent="1" target="PMFWBWJMJhMOsHf-A9bf-4" edge="1">
          <mxGeometry width="50" height="50" relative="1" as="geometry">
            <mxPoint x="15" y="610" as="sourcePoint" />
            <mxPoint x="124" y="491" as="targetPoint" />
          </mxGeometry>
        </mxCell>
        <mxCell id="xdtesriV18p9qqZV6DTo-1" value="" style="shape=crossbar;whiteSpace=wrap;html=1;rounded=1;" vertex="1" parent="1">
          <mxGeometry x="-52" y="890" width="67" height="20" as="geometry" />
        </mxCell>
        <mxCell id="xdtesriV18p9qqZV6DTo-2" value="" style="shape=crossbar;whiteSpace=wrap;html=1;rounded=1;" vertex="1" parent="1">
          <mxGeometry x="-52" y="947" width="67" height="20" as="geometry" />
        </mxCell>
        <mxCell id="xdtesriV18p9qqZV6DTo-3" value="" style="shape=crossbar;whiteSpace=wrap;html=1;rounded=1;" vertex="1" parent="1">
          <mxGeometry x="15" y="948" width="67" height="20" as="geometry" />
        </mxCell>
        <mxCell id="xdtesriV18p9qqZV6DTo-4" value="" style="shape=crossbar;whiteSpace=wrap;html=1;rounded=1;" vertex="1" parent="1">
          <mxGeometry x="82" y="948" width="67" height="20" as="geometry" />
        </mxCell>
        <mxCell id="xdtesriV18p9qqZV6DTo-5" value="" style="shape=crossbar;whiteSpace=wrap;html=1;rounded=1;" vertex="1" parent="1">
          <mxGeometry x="149" y="948" width="67" height="20" as="geometry" />
        </mxCell>
        <mxCell id="xdtesriV18p9qqZV6DTo-8" value="兔" style="text;html=1;align=center;verticalAlign=middle;resizable=0;points=[];autosize=1;strokeColor=none;fillColor=none;" vertex="1" parent="1">
          <mxGeometry x="-110" y="875" width="30" height="26" as="geometry" />
        </mxCell>
        <mxCell id="xdtesriV18p9qqZV6DTo-9" value="鸡" style="text;html=1;align=center;verticalAlign=middle;resizable=0;points=[];autosize=1;strokeColor=none;fillColor=none;" vertex="1" parent="1">
          <mxGeometry x="-113" y="934" width="30" height="26" as="geometry" />
        </mxCell>
        <mxCell id="xdtesriV18p9qqZV6DTo-11" value="" style="endArrow=classic;html=1;rounded=0;exitX=0.25;exitY=0.5;exitDx=0;exitDy=0;exitPerimeter=0;entryX=0.5;entryY=0.5;entryDx=0;entryDy=0;entryPerimeter=0;" edge="1" parent="1" source="xdtesriV18p9qqZV6DTo-1" target="xdtesriV18p9qqZV6DTo-2">
          <mxGeometry width="50" height="50" relative="1" as="geometry">
            <mxPoint x="244" y="743" as="sourcePoint" />
            <mxPoint x="294" y="693" as="targetPoint" />
          </mxGeometry>
        </mxCell>
        <mxCell id="xdtesriV18p9qqZV6DTo-12" style="rounded=0;orthogonalLoop=1;jettySize=auto;html=1;exitX=0.25;exitY=0.5;exitDx=0;exitDy=0;exitPerimeter=0;entryX=0.5;entryY=0.5;entryDx=0;entryDy=0;entryPerimeter=0;" edge="1" parent="1" source="xdtesriV18p9qqZV6DTo-1" target="xdtesriV18p9qqZV6DTo-3">
          <mxGeometry relative="1" as="geometry" />
        </mxCell>
        <mxCell id="xdtesriV18p9qqZV6DTo-13" style="rounded=0;orthogonalLoop=1;jettySize=auto;html=1;exitX=0.25;exitY=0.5;exitDx=0;exitDy=0;exitPerimeter=0;entryX=0.25;entryY=0.5;entryDx=0;entryDy=0;entryPerimeter=0;" edge="1" parent="1" source="xdtesriV18p9qqZV6DTo-1" target="xdtesriV18p9qqZV6DTo-4">
          <mxGeometry relative="1" as="geometry" />
        </mxCell>
        <mxCell id="xdtesriV18p9qqZV6DTo-14" style="rounded=0;orthogonalLoop=1;jettySize=auto;html=1;exitX=0.25;exitY=0.5;exitDx=0;exitDy=0;exitPerimeter=0;entryX=0.25;entryY=0.5;entryDx=0;entryDy=0;entryPerimeter=0;" edge="1" parent="1" source="xdtesriV18p9qqZV6DTo-1" target="xdtesriV18p9qqZV6DTo-5">
          <mxGeometry relative="1" as="geometry" />
        </mxCell>
      </root>
    </mxGraphModel>
  </diagram>
</mxfile>
